<mxfile host="app.diagrams.net" modified="2021-04-01T01:44:47.913Z" agent="5.0 (Windows NT 10.0; WOW64) AppleWebKit/537.36 (KHTML, like Gecko) Chrome/72.0.3626.121 Safari/537.36" etag="6JqVRiaVe7rCtufMJQUh" version="14.5.1" type="github">
  <diagram id="OLWQJMdd0GZBQvJl7Ah5" name="第 1 页">
    <mxGraphModel dx="1185" dy="635" grid="1" gridSize="10" guides="1" tooltips="1" connect="1" arrows="1" fold="1" page="1" pageScale="1" pageWidth="827" pageHeight="1169" math="0" shadow="0">
      <root>
        <mxCell id="0" />
        <mxCell id="1" parent="0" />
        <mxCell id="CMRHBEQEcgiSeav-4flf-11" style="edgeStyle=orthogonalEdgeStyle;rounded=0;orthogonalLoop=1;jettySize=auto;html=1;exitX=1;exitY=0.5;exitDx=0;exitDy=0;" parent="1" source="CMRHBEQEcgiSeav-4flf-7" target="UxoHD04tg5Q-O8OyDqUi-3" edge="1">
          <mxGeometry relative="1" as="geometry" />
        </mxCell>
        <mxCell id="CMRHBEQEcgiSeav-4flf-7" value="" style="rounded=0;whiteSpace=wrap;html=1;" parent="1" vertex="1">
          <mxGeometry x="391" y="935" width="436" height="110" as="geometry" />
        </mxCell>
        <mxCell id="CMRHBEQEcgiSeav-4flf-8" style="edgeStyle=orthogonalEdgeStyle;rounded=0;orthogonalLoop=1;jettySize=auto;html=1;exitX=0.5;exitY=0;exitDx=0;exitDy=0;" parent="1" source="CMRHBEQEcgiSeav-4flf-6" target="CMRHBEQEcgiSeav-4flf-7" edge="1">
          <mxGeometry relative="1" as="geometry" />
        </mxCell>
        <mxCell id="CMRHBEQEcgiSeav-4flf-6" value="" style="rounded=0;whiteSpace=wrap;html=1;" parent="1" vertex="1">
          <mxGeometry x="391" y="1065" width="436" height="90" as="geometry" />
        </mxCell>
        <mxCell id="CMRHBEQEcgiSeav-4flf-10" style="edgeStyle=orthogonalEdgeStyle;rounded=0;orthogonalLoop=1;jettySize=auto;html=1;exitX=1;exitY=0.5;exitDx=0;exitDy=0;" parent="1" source="UxoHD04tg5Q-O8OyDqUi-2" target="CMRHBEQEcgiSeav-4flf-7" edge="1">
          <mxGeometry relative="1" as="geometry" />
        </mxCell>
        <mxCell id="UxoHD04tg5Q-O8OyDqUi-2" value="input" style="ellipse;whiteSpace=wrap;html=1;aspect=fixed;fontSize=15;fillColor=#f5f5f5;strokeColor=#666666;fontColor=#333333;" parent="1" vertex="1">
          <mxGeometry x="271.5" y="950" width="80" height="80" as="geometry" />
        </mxCell>
        <mxCell id="UxoHD04tg5Q-O8OyDqUi-3" value="output" style="ellipse;whiteSpace=wrap;html=1;aspect=fixed;fontSize=15;fillColor=#f5f5f5;strokeColor=#666666;fontColor=#333333;" parent="1" vertex="1">
          <mxGeometry x="860" y="950" width="80" height="80" as="geometry" />
        </mxCell>
        <mxCell id="UxoHD04tg5Q-O8OyDqUi-17" value="context + request" style="text;html=1;strokeColor=none;fillColor=none;align=center;verticalAlign=middle;whiteSpace=wrap;rounded=0;fontSize=12;" parent="1" vertex="1">
          <mxGeometry x="231.5" y="920" width="170" height="20" as="geometry" />
        </mxCell>
        <mxCell id="UxoHD04tg5Q-O8OyDqUi-18" value="context + response" style="text;html=1;strokeColor=none;fillColor=none;align=center;verticalAlign=middle;whiteSpace=wrap;rounded=0;fontSize=12;" parent="1" vertex="1">
          <mxGeometry x="809.15" y="915" width="170" height="20" as="geometry" />
        </mxCell>
        <mxCell id="CMRHBEQEcgiSeav-4flf-12" style="edgeStyle=orthogonalEdgeStyle;rounded=0;orthogonalLoop=1;jettySize=auto;html=1;exitX=0.5;exitY=1;exitDx=0;exitDy=0;entryX=0.5;entryY=0;entryDx=0;entryDy=0;" parent="1" source="UxoHD04tg5Q-O8OyDqUi-20" target="CMRHBEQEcgiSeav-4flf-9" edge="1">
          <mxGeometry relative="1" as="geometry" />
        </mxCell>
        <mxCell id="UxoHD04tg5Q-O8OyDqUi-20" value="FaasSrv" style="rounded=0;whiteSpace=wrap;html=1;fontSize=12;fillColor=#f8cecc;strokeColor=#b85450;" parent="1" vertex="1">
          <mxGeometry x="549" y="790" width="120" height="60" as="geometry" />
        </mxCell>
        <mxCell id="CMRHBEQEcgiSeav-4flf-15" style="edgeStyle=orthogonalEdgeStyle;rounded=0;orthogonalLoop=1;jettySize=auto;html=1;exitX=0.5;exitY=1;exitDx=0;exitDy=0;" parent="1" source="UxoHD04tg5Q-O8OyDqUi-21" target="UxoHD04tg5Q-O8OyDqUi-20" edge="1">
          <mxGeometry relative="1" as="geometry" />
        </mxCell>
        <mxCell id="CMRHBEQEcgiSeav-4flf-16" style="edgeStyle=orthogonalEdgeStyle;rounded=0;orthogonalLoop=1;jettySize=auto;html=1;exitX=1;exitY=0.5;exitDx=0;exitDy=0;entryX=0.75;entryY=0;entryDx=0;entryDy=0;" parent="1" source="UxoHD04tg5Q-O8OyDqUi-21" target="CMRHBEQEcgiSeav-4flf-7" edge="1">
          <mxGeometry relative="1" as="geometry" />
        </mxCell>
        <mxCell id="CMRHBEQEcgiSeav-4flf-17" style="edgeStyle=orthogonalEdgeStyle;rounded=0;orthogonalLoop=1;jettySize=auto;html=1;exitX=0;exitY=0.5;exitDx=0;exitDy=0;entryX=0.25;entryY=0;entryDx=0;entryDy=0;" parent="1" source="UxoHD04tg5Q-O8OyDqUi-21" target="CMRHBEQEcgiSeav-4flf-7" edge="1">
          <mxGeometry relative="1" as="geometry">
            <Array as="points">
              <mxPoint x="500" y="680" />
            </Array>
          </mxGeometry>
        </mxCell>
        <mxCell id="UxoHD04tg5Q-O8OyDqUi-21" value="FaasConfigServer" style="rounded=0;whiteSpace=wrap;html=1;fontSize=12;fillColor=#dae8fc;strokeColor=#6c8ebf;" parent="1" vertex="1">
          <mxGeometry x="549" y="650" width="120" height="60" as="geometry" />
        </mxCell>
        <mxCell id="CMRHBEQEcgiSeav-4flf-3" value="依赖注入&lt;br&gt;(internal&lt;br&gt;thirpart)" style="rounded=0;whiteSpace=wrap;html=1;fontSize=12;fillColor=#f5f5f5;strokeColor=#666666;fontColor=#333333;" parent="1" vertex="1">
          <mxGeometry x="406.87" y="1075" width="117.13" height="70" as="geometry" />
        </mxCell>
        <mxCell id="CMRHBEQEcgiSeav-4flf-23" style="edgeStyle=orthogonalEdgeStyle;rounded=0;orthogonalLoop=1;jettySize=auto;html=1;exitX=0.5;exitY=1;exitDx=0;exitDy=0;" parent="1" source="CMRHBEQEcgiSeav-4flf-4" target="CMRHBEQEcgiSeav-4flf-22" edge="1">
          <mxGeometry relative="1" as="geometry" />
        </mxCell>
        <mxCell id="CMRHBEQEcgiSeav-4flf-4" value="插件注入&lt;br&gt;（dbhelper, redisheper, resourcehelper, utilhelper, loghelper, reporthelper)" style="rounded=0;whiteSpace=wrap;html=1;fontSize=12;fillColor=#f5f5f5;strokeColor=#666666;fontColor=#333333;" parent="1" vertex="1">
          <mxGeometry x="540.5" y="1075" width="271.5" height="70" as="geometry" />
        </mxCell>
        <mxCell id="UxoHD04tg5Q-O8OyDqUi-5" value="JsExcutorSrv" style="rounded=0;whiteSpace=wrap;html=1;fillColor=#d5e8d4;strokeColor=#82b366;" parent="1" vertex="1">
          <mxGeometry x="409.5" y="975" width="113.763431542461" height="50" as="geometry" />
        </mxCell>
        <mxCell id="CMRHBEQEcgiSeav-4flf-1" value="GoExcutorSrv" style="rounded=0;whiteSpace=wrap;html=1;fillColor=#d5e8d4;strokeColor=#82b366;" parent="1" vertex="1">
          <mxGeometry x="547.4982495667244" y="975" width="119.64774696707106" height="50" as="geometry" />
        </mxCell>
        <mxCell id="CMRHBEQEcgiSeav-4flf-2" value="LuaExcutorSrv" style="rounded=0;whiteSpace=wrap;html=1;fillColor=#d5e8d4;strokeColor=#82b366;" parent="1" vertex="1">
          <mxGeometry x="689.5022530329289" y="975" width="119.64774696707106" height="50" as="geometry" />
        </mxCell>
        <mxCell id="CMRHBEQEcgiSeav-4flf-9" value="执行服务" style="text;html=1;strokeColor=none;fillColor=none;align=center;verticalAlign=middle;whiteSpace=wrap;rounded=0;" parent="1" vertex="1">
          <mxGeometry x="584" y="935" width="50" height="20" as="geometry" />
        </mxCell>
        <mxCell id="CMRHBEQEcgiSeav-4flf-19" style="edgeStyle=orthogonalEdgeStyle;rounded=0;orthogonalLoop=1;jettySize=auto;html=1;exitX=0.5;exitY=1;exitDx=0;exitDy=0;" parent="1" source="CMRHBEQEcgiSeav-4flf-18" target="UxoHD04tg5Q-O8OyDqUi-21" edge="1">
          <mxGeometry relative="1" as="geometry" />
        </mxCell>
        <mxCell id="CMRHBEQEcgiSeav-4flf-18" value="FaasAdminsrv" style="rounded=0;whiteSpace=wrap;html=1;fontSize=12;fillColor=#dae8fc;strokeColor=#6c8ebf;" parent="1" vertex="1">
          <mxGeometry x="549" y="560" width="120" height="60" as="geometry" />
        </mxCell>
        <mxCell id="CMRHBEQEcgiSeav-4flf-21" style="edgeStyle=orthogonalEdgeStyle;rounded=0;orthogonalLoop=1;jettySize=auto;html=1;exitX=1;exitY=0.5;exitDx=0;exitDy=0;" parent="1" source="CMRHBEQEcgiSeav-4flf-20" target="UxoHD04tg5Q-O8OyDqUi-20" edge="1">
          <mxGeometry relative="1" as="geometry" />
        </mxCell>
        <mxCell id="CMRHBEQEcgiSeav-4flf-20" value="调用方" style="ellipse;whiteSpace=wrap;html=1;aspect=fixed;" parent="1" vertex="1">
          <mxGeometry x="370" y="780" width="80" height="80" as="geometry" />
        </mxCell>
        <mxCell id="CMRHBEQEcgiSeav-4flf-22" value="数据操作&lt;br&gt;（mysql, redis, kafka, http, trpc, idip, zhiyan...)" style="rounded=0;whiteSpace=wrap;html=1;" parent="1" vertex="1">
          <mxGeometry x="541.5" y="1180" width="269.5" height="60" as="geometry" />
        </mxCell>
        <mxCell id="pfZ5TkLtPLS2MDY2k81m-2" value="JavaScript" style="rounded=0;whiteSpace=wrap;html=1;fillColor=#d5e8d4;strokeColor=#82b366;" parent="1" vertex="1">
          <mxGeometry x="391" y="1310" width="120" height="60" as="geometry" />
        </mxCell>
        <mxCell id="pfZ5TkLtPLS2MDY2k81m-4" value="Golang" style="rounded=0;whiteSpace=wrap;html=1;fillColor=#d5e8d4;strokeColor=#82b366;" parent="1" vertex="1">
          <mxGeometry x="551" y="1310" width="120" height="60" as="geometry" />
        </mxCell>
        <mxCell id="pfZ5TkLtPLS2MDY2k81m-6" value="Lua" style="rounded=0;whiteSpace=wrap;html=1;fillColor=#d5e8d4;strokeColor=#82b366;" parent="1" vertex="1">
          <mxGeometry x="711.5" y="1310" width="120" height="60" as="geometry" />
        </mxCell>
        <mxCell id="pfZ5TkLtPLS2MDY2k81m-7" value="" style="group" parent="1" vertex="1" connectable="0">
          <mxGeometry x="391" y="1370" width="440.5" height="60" as="geometry" />
        </mxCell>
        <mxCell id="pfZ5TkLtPLS2MDY2k81m-1" value="V8沙箱&lt;br&gt;(tnpm/vm2)" style="rounded=0;whiteSpace=wrap;html=1;fillColor=#f8cecc;strokeColor=#b85450;" parent="pfZ5TkLtPLS2MDY2k81m-7" vertex="1">
          <mxGeometry width="120" height="60" as="geometry" />
        </mxCell>
        <mxCell id="pfZ5TkLtPLS2MDY2k81m-3" value="Interpreter解析器&lt;br&gt;（gofun或yaegi)" style="rounded=0;whiteSpace=wrap;html=1;fillColor=#f8cecc;strokeColor=#b85450;" parent="pfZ5TkLtPLS2MDY2k81m-7" vertex="1">
          <mxGeometry x="160" width="120" height="60" as="geometry" />
        </mxCell>
        <mxCell id="pfZ5TkLtPLS2MDY2k81m-5" value="lua虚拟机&lt;br&gt;(gopher-lua)" style="rounded=0;whiteSpace=wrap;html=1;fillColor=#f8cecc;strokeColor=#b85450;" parent="pfZ5TkLtPLS2MDY2k81m-7" vertex="1">
          <mxGeometry x="320.5" width="120" height="60" as="geometry" />
        </mxCell>
        <mxCell id="pfZ5TkLtPLS2MDY2k81m-9" value="&lt;h1&gt;其他功能&lt;/h1&gt;&lt;p&gt;1. 权限&lt;/p&gt;&lt;p&gt;2. 监控&lt;/p&gt;&lt;p&gt;3. 测试&lt;/p&gt;&lt;p&gt;4.触发器&lt;/p&gt;" style="text;html=1;strokeColor=none;fillColor=none;spacing=5;spacingTop=-20;whiteSpace=wrap;overflow=hidden;rounded=0;" parent="1" vertex="1">
          <mxGeometry x="750" y="560" width="190" height="150" as="geometry" />
        </mxCell>
        <mxCell id="pfZ5TkLtPLS2MDY2k81m-10" value="&lt;h1&gt;使用场景&lt;/h1&gt;&lt;p&gt;1. 流程引擎条件机&lt;/p&gt;&lt;p&gt;2. 任务中心指标计算&lt;/p&gt;&lt;p&gt;3. 乐高复杂接口&lt;/p&gt;&lt;p&gt;4. 数据脚本&lt;/p&gt;" style="text;html=1;strokeColor=none;fillColor=none;spacing=5;spacingTop=-20;whiteSpace=wrap;overflow=hidden;rounded=0;" parent="1" vertex="1">
          <mxGeometry x="339" y="560" width="149" height="150" as="geometry" />
        </mxCell>
        <mxCell id="pfZ5TkLtPLS2MDY2k81m-12" value="" style="rounded=0;whiteSpace=wrap;html=1;fillColor=#f8cecc;strokeColor=#b85450;" parent="1" vertex="1">
          <mxGeometry x="391" y="1520" width="279" height="210" as="geometry" />
        </mxCell>
        <mxCell id="pfZ5TkLtPLS2MDY2k81m-14" value="ExcuteBox.Run(code，sandbox)" style="text;html=1;strokeColor=none;fillColor=none;align=center;verticalAlign=middle;whiteSpace=wrap;rounded=0;" parent="1" vertex="1">
          <mxGeometry x="450" y="1734" width="182" height="20" as="geometry" />
        </mxCell>
        <mxCell id="pfZ5TkLtPLS2MDY2k81m-15" value="builtin内置依赖" style="rounded=0;whiteSpace=wrap;html=1;fillColor=#f5f5f5;strokeColor=#666666;fontColor=#333333;" parent="1" vertex="1">
          <mxGeometry x="414" y="1540" width="116" height="30" as="geometry" />
        </mxCell>
        <mxCell id="pfZ5TkLtPLS2MDY2k81m-18" value="thirdpart第三方依赖" style="rounded=0;whiteSpace=wrap;html=1;fillColor=#f5f5f5;strokeColor=#666666;fontColor=#333333;" parent="1" vertex="1">
          <mxGeometry x="414" y="1570" width="116" height="30" as="geometry" />
        </mxCell>
        <mxCell id="pfZ5TkLtPLS2MDY2k81m-19" value="插件Helper" style="rounded=0;whiteSpace=wrap;html=1;fillColor=#f5f5f5;strokeColor=#666666;fontColor=#333333;" parent="1" vertex="1">
          <mxGeometry x="541.5" y="1540" width="116" height="60" as="geometry" />
        </mxCell>
        <mxCell id="pfZ5TkLtPLS2MDY2k81m-20" value="Code&lt;br&gt;代码" style="ellipse;whiteSpace=wrap;html=1;aspect=fixed;fillColor=#f5f5f5;strokeColor=#666666;fontColor=#333333;" parent="1" vertex="1">
          <mxGeometry x="491" y="1620" width="80" height="80" as="geometry" />
        </mxCell>
        <mxCell id="pfZ5TkLtPLS2MDY2k81m-21" value="" style="endArrow=classic;html=1;entryX=0;entryY=0.5;entryDx=0;entryDy=0;" parent="1" target="pfZ5TkLtPLS2MDY2k81m-20" edge="1">
          <mxGeometry width="50" height="50" relative="1" as="geometry">
            <mxPoint x="370" y="1660" as="sourcePoint" />
            <mxPoint x="370" y="1650" as="targetPoint" />
          </mxGeometry>
        </mxCell>
        <mxCell id="pfZ5TkLtPLS2MDY2k81m-22" value="" style="endArrow=classic;html=1;exitX=1;exitY=0.5;exitDx=0;exitDy=0;" parent="1" source="pfZ5TkLtPLS2MDY2k81m-20" edge="1">
          <mxGeometry width="50" height="50" relative="1" as="geometry">
            <mxPoint x="680" y="1690" as="sourcePoint" />
            <mxPoint x="700" y="1660" as="targetPoint" />
          </mxGeometry>
        </mxCell>
        <mxCell id="pfZ5TkLtPLS2MDY2k81m-25" value="" style="endArrow=none;dashed=1;html=1;entryX=0;entryY=1;entryDx=0;entryDy=0;exitX=0;exitY=0;exitDx=0;exitDy=0;" parent="1" source="pfZ5TkLtPLS2MDY2k81m-12" target="pfZ5TkLtPLS2MDY2k81m-1" edge="1">
          <mxGeometry width="50" height="50" relative="1" as="geometry">
            <mxPoint x="330" y="1510" as="sourcePoint" />
            <mxPoint x="380" y="1460" as="targetPoint" />
          </mxGeometry>
        </mxCell>
        <mxCell id="pfZ5TkLtPLS2MDY2k81m-26" value="" style="endArrow=none;dashed=1;html=1;entryX=1;entryY=1;entryDx=0;entryDy=0;exitX=1;exitY=0;exitDx=0;exitDy=0;" parent="1" source="pfZ5TkLtPLS2MDY2k81m-12" target="pfZ5TkLtPLS2MDY2k81m-1" edge="1">
          <mxGeometry width="50" height="50" relative="1" as="geometry">
            <mxPoint x="300" y="1530" as="sourcePoint" />
            <mxPoint x="350" y="1480" as="targetPoint" />
          </mxGeometry>
        </mxCell>
        <mxCell id="5PFWlFZqcd6oAMGtFJjq-10" style="edgeStyle=orthogonalEdgeStyle;rounded=0;orthogonalLoop=1;jettySize=auto;html=1;exitX=1;exitY=0.5;exitDx=0;exitDy=0;entryX=0;entryY=0.75;entryDx=0;entryDy=0;shadow=0;fontSize=15;" edge="1" parent="1" source="5PFWlFZqcd6oAMGtFJjq-7" target="IqT8eU0gc5ELSn8c8THs-2">
          <mxGeometry relative="1" as="geometry" />
        </mxCell>
        <mxCell id="5PFWlFZqcd6oAMGtFJjq-11" value="&lt;font style=&quot;font-size: 12px&quot;&gt;更新LRU&lt;/font&gt;" style="edgeLabel;html=1;align=center;verticalAlign=middle;resizable=0;points=[];fontSize=15;" vertex="1" connectable="0" parent="5PFWlFZqcd6oAMGtFJjq-10">
          <mxGeometry x="-0.225" y="-1" relative="1" as="geometry">
            <mxPoint as="offset" />
          </mxGeometry>
        </mxCell>
        <mxCell id="5PFWlFZqcd6oAMGtFJjq-7" value="&lt;font color=&quot;#b3b3b3&quot; style=&quot;font-size: 15px;&quot;&gt;redis&lt;/font&gt;" style="shape=datastore;whiteSpace=wrap;html=1;strokeColor=#B3B3B3;fontColor=#4D9900;align=center;fontSize=15;" vertex="1" parent="1">
          <mxGeometry x="120.00065196548417" y="2122.0022580645164" width="37.99616490891659" height="36.45161290322581" as="geometry" />
        </mxCell>
        <mxCell id="IqT8eU0gc5ELSn8c8THs-1" value="" style="rounded=0;whiteSpace=wrap;html=1;fillColor=#f5f5f5;strokeColor=#666666;fontColor=#333333;fontSize=15;" parent="1" vertex="1">
          <mxGeometry x="576.9002876318312" y="1830.4301075268818" width="333.09971236816875" height="85.05376344086022" as="geometry" />
        </mxCell>
        <mxCell id="IqT8eU0gc5ELSn8c8THs-2" value="" style="rounded=0;whiteSpace=wrap;html=1;fillColor=#dae8fc;strokeColor=#6c8ebf;fontSize=15;" parent="1" vertex="1">
          <mxGeometry x="249.5" y="2085.5913978494623" width="658.6001917545542" height="72.90322580645162" as="geometry" />
        </mxCell>
        <mxCell id="IqT8eU0gc5ELSn8c8THs-3" value="" style="rounded=0;whiteSpace=wrap;html=1;fillColor=#f5f5f5;strokeColor=#666666;fontColor=#333333;fontSize=15;" parent="1" vertex="1">
          <mxGeometry x="249.5" y="2207.0967741935483" width="658.6001917545542" height="72.90322580645162" as="geometry" />
        </mxCell>
        <mxCell id="gpSYbSqz9sT6_d6u6PUT-11" style="edgeStyle=orthogonalEdgeStyle;rounded=0;orthogonalLoop=1;jettySize=auto;html=1;exitX=0.5;exitY=1;exitDx=0;exitDy=0;entryX=0.5;entryY=0;entryDx=0;entryDy=0;fontSize=15;" parent="1" source="IqT8eU0gc5ELSn8c8THs-2" target="IqT8eU0gc5ELSn8c8THs-3" edge="1">
          <mxGeometry x="249.5" y="1828" as="geometry">
            <Array as="points">
              <mxPoint x="579.4333652924257" y="2182.7956989247314" />
              <mxPoint x="579.4333652924257" y="2182.7956989247314" />
            </Array>
          </mxGeometry>
        </mxCell>
        <mxCell id="gpSYbSqz9sT6_d6u6PUT-72" value="&lt;span style=&quot;font-size: 15px; background-color: rgb(248, 249, 250);&quot;&gt;helper&lt;/span&gt;" style="edgeLabel;html=1;align=center;verticalAlign=middle;resizable=0;points=[];fontColor=#000000;fontSize=15;" parent="gpSYbSqz9sT6_d6u6PUT-11" vertex="1" connectable="0">
          <mxGeometry x="-0.1556" relative="1" as="geometry">
            <mxPoint as="offset" />
          </mxGeometry>
        </mxCell>
        <mxCell id="IqT8eU0gc5ELSn8c8THs-4" value="触发层" style="text;html=1;strokeColor=none;fillColor=none;align=center;verticalAlign=middle;whiteSpace=wrap;rounded=0;fontSize=15;" parent="1" vertex="1">
          <mxGeometry x="722.5522531160116" y="1830.4301075268818" width="50.66155321188879" height="24.301075268817204" as="geometry" />
        </mxCell>
        <mxCell id="IqT8eU0gc5ELSn8c8THs-5" value="执行层" style="text;html=1;strokeColor=none;fillColor=none;align=center;verticalAlign=middle;whiteSpace=wrap;rounded=0;fontSize=15;" parent="1" vertex="1">
          <mxGeometry x="255.8326941514861" y="2109.8924731182797" width="50.66155321188879" height="24.301075268817204" as="geometry" />
        </mxCell>
        <mxCell id="IqT8eU0gc5ELSn8c8THs-6" value="基础层" style="text;html=1;strokeColor=none;fillColor=none;align=center;verticalAlign=middle;whiteSpace=wrap;rounded=0;fontSize=15;" parent="1" vertex="1">
          <mxGeometry x="255.8326941514861" y="2231.3978494623657" width="50.66155321188879" height="24.301075268817204" as="geometry" />
        </mxCell>
        <mxCell id="IqT8eU0gc5ELSn8c8THs-15" value="" style="group;fontSize=15;" parent="1" vertex="1" connectable="0">
          <mxGeometry x="326.1255992329818" y="2109.8924731182797" width="379.96164908916586" height="29.161290322580648" as="geometry" />
        </mxCell>
        <mxCell id="IqT8eU0gc5ELSn8c8THs-12" value="JsExcutorSrv" style="rounded=0;whiteSpace=wrap;html=1;fontSize=15;" parent="IqT8eU0gc5ELSn8c8THs-15" vertex="1">
          <mxGeometry width="108.15899175507548" height="29.161290322580648" as="geometry" />
        </mxCell>
        <mxCell id="IqT8eU0gc5ELSn8c8THs-13" value="GoExcutorSrv" style="rounded=0;whiteSpace=wrap;html=1;fontSize=15;" parent="IqT8eU0gc5ELSn8c8THs-15" vertex="1">
          <mxGeometry x="131.19990610982333" width="113.75342236309662" height="29.161290322580648" as="geometry" />
        </mxCell>
        <mxCell id="IqT8eU0gc5ELSn8c8THs-14" value="LuaExcutorSrv" style="rounded=0;whiteSpace=wrap;html=1;fontSize=15;" parent="IqT8eU0gc5ELSn8c8THs-15" vertex="1">
          <mxGeometry x="266.20822672606926" width="113.75342236309662" height="29.161290322580648" as="geometry" />
        </mxCell>
        <mxCell id="IqT8eU0gc5ELSn8c8THs-17" value="存储" style="rounded=0;whiteSpace=wrap;html=1;fontSize=15;" parent="1" vertex="1">
          <mxGeometry x="320.89479386385426" y="2225.3225806451615" width="126.65388302972195" height="36.45161290322581" as="geometry" />
        </mxCell>
        <mxCell id="IqT8eU0gc5ELSn8c8THs-18" value="服务接口" style="rounded=0;whiteSpace=wrap;html=1;fontSize=15;" parent="1" vertex="1">
          <mxGeometry x="452.7794822627037" y="2225.3225806451615" width="126.65388302972195" height="36.45161290322581" as="geometry" />
        </mxCell>
        <mxCell id="IqT8eU0gc5ELSn8c8THs-19" value="外部接口" style="rounded=0;whiteSpace=wrap;html=1;fontSize=15;" parent="1" vertex="1">
          <mxGeometry x="585.7660594439118" y="2225.3225806451615" width="126.65388302972195" height="36.45161290322581" as="geometry" />
        </mxCell>
        <mxCell id="IqT8eU0gc5ELSn8c8THs-20" value="..." style="rounded=0;whiteSpace=wrap;html=1;fontSize=15;" parent="1" vertex="1">
          <mxGeometry x="720.0191754554171" y="2225.3225806451615" width="126.65388302972195" height="36.45161290322581" as="geometry" />
        </mxCell>
        <mxCell id="gpSYbSqz9sT6_d6u6PUT-6" style="edgeStyle=orthogonalEdgeStyle;rounded=0;orthogonalLoop=1;jettySize=auto;html=1;exitX=0.5;exitY=1;exitDx=0;exitDy=0;entryX=0.5;entryY=0;entryDx=0;entryDy=0;fontSize=15;" parent="1" source="gpSYbSqz9sT6_d6u6PUT-1" target="IqT8eU0gc5ELSn8c8THs-2" edge="1">
          <mxGeometry x="249.5" y="1828" as="geometry" />
        </mxCell>
        <mxCell id="5PFWlFZqcd6oAMGtFJjq-5" value="&lt;span style=&quot;background-color: rgb(248 , 249 , 250)&quot;&gt;&lt;font style=&quot;font-size: 12px&quot;&gt;faas_id + version + request&lt;/font&gt;&lt;/span&gt;" style="edgeLabel;html=1;align=center;verticalAlign=middle;resizable=0;points=[];fontSize=15;" vertex="1" connectable="0" parent="gpSYbSqz9sT6_d6u6PUT-6">
          <mxGeometry x="-0.1657" relative="1" as="geometry">
            <mxPoint as="offset" />
          </mxGeometry>
        </mxCell>
        <mxCell id="gpSYbSqz9sT6_d6u6PUT-1" value="" style="rounded=0;whiteSpace=wrap;html=1;fillColor=#ffe6cc;strokeColor=#d79b00;fontSize=15;" parent="1" vertex="1">
          <mxGeometry x="249.5" y="1964.0860215053763" width="659.2334611697028" height="72.90322580645162" as="geometry" />
        </mxCell>
        <mxCell id="gpSYbSqz9sT6_d6u6PUT-2" style="edgeStyle=orthogonalEdgeStyle;rounded=0;orthogonalLoop=1;jettySize=auto;html=1;exitX=0.5;exitY=1;exitDx=0;exitDy=0;entryX=0.75;entryY=0;entryDx=0;entryDy=0;fontSize=15;" parent="1" source="IqT8eU0gc5ELSn8c8THs-1" target="gpSYbSqz9sT6_d6u6PUT-1" edge="1">
          <mxGeometry x="249.5" y="1828" as="geometry" />
        </mxCell>
        <mxCell id="gpSYbSqz9sT6_d6u6PUT-71" value="&lt;span style=&quot;background-color: rgb(248 , 249 , 250)&quot;&gt;&lt;font style=&quot;font-size: 12px&quot;&gt;faas_id + request&lt;/font&gt;&lt;/span&gt;" style="edgeLabel;html=1;align=center;verticalAlign=middle;resizable=0;points=[];fontColor=#000000;fontSize=15;" parent="gpSYbSqz9sT6_d6u6PUT-2" vertex="1" connectable="0">
          <mxGeometry x="-0.1914" relative="1" as="geometry">
            <mxPoint as="offset" />
          </mxGeometry>
        </mxCell>
        <mxCell id="gpSYbSqz9sT6_d6u6PUT-17" style="edgeStyle=orthogonalEdgeStyle;rounded=0;orthogonalLoop=1;jettySize=auto;html=1;exitX=0.5;exitY=1;exitDx=0;exitDy=0;entryX=0.25;entryY=0;entryDx=0;entryDy=0;fontSize=15;" parent="1" source="gpSYbSqz9sT6_d6u6PUT-7" target="gpSYbSqz9sT6_d6u6PUT-1" edge="1">
          <mxGeometry x="249.5" y="1828" as="geometry" />
        </mxCell>
        <mxCell id="gpSYbSqz9sT6_d6u6PUT-18" value="&lt;font style=&quot;font-size: 12px&quot;&gt;测试执行&lt;/font&gt;" style="edgeLabel;html=1;align=center;verticalAlign=middle;resizable=0;points=[];fontSize=15;" parent="gpSYbSqz9sT6_d6u6PUT-17" vertex="1" connectable="0">
          <mxGeometry x="-0.4" relative="1" as="geometry">
            <mxPoint y="3" as="offset" />
          </mxGeometry>
        </mxCell>
        <mxCell id="5PFWlFZqcd6oAMGtFJjq-8" style="edgeStyle=orthogonalEdgeStyle;rounded=0;orthogonalLoop=1;jettySize=auto;html=1;exitX=0;exitY=0.25;exitDx=0;exitDy=0;entryX=0.5;entryY=0;entryDx=0;entryDy=0;shadow=0;fontSize=15;" edge="1" parent="1" source="gpSYbSqz9sT6_d6u6PUT-7" target="5PFWlFZqcd6oAMGtFJjq-7">
          <mxGeometry relative="1" as="geometry" />
        </mxCell>
        <mxCell id="5PFWlFZqcd6oAMGtFJjq-9" value="&lt;font style=&quot;font-size: 12px&quot;&gt;发布版本&lt;/font&gt;" style="edgeLabel;html=1;align=center;verticalAlign=middle;resizable=0;points=[];fontSize=15;" vertex="1" connectable="0" parent="5PFWlFZqcd6oAMGtFJjq-8">
          <mxGeometry x="-0.4194" relative="1" as="geometry">
            <mxPoint as="offset" />
          </mxGeometry>
        </mxCell>
        <mxCell id="gpSYbSqz9sT6_d6u6PUT-7" value="FaasAdminSrv" style="rounded=0;whiteSpace=wrap;html=1;fillColor=#dae8fc;strokeColor=#6c8ebf;fontSize=15;" parent="1" vertex="1">
          <mxGeometry x="351.4563758389262" y="1879.032258064516" width="126.65388302972195" height="36.45161290322581" as="geometry" />
        </mxCell>
        <mxCell id="gpSYbSqz9sT6_d6u6PUT-67" style="edgeStyle=orthogonalEdgeStyle;rounded=0;orthogonalLoop=1;jettySize=auto;html=1;exitX=0.5;exitY=1;exitDx=0;exitDy=0;entryX=0.5;entryY=0;entryDx=0;entryDy=0;strokeWidth=1;fontColor=#000000;fontSize=15;" parent="1" source="gpSYbSqz9sT6_d6u6PUT-8" target="gpSYbSqz9sT6_d6u6PUT-7" edge="1">
          <mxGeometry x="249.5" y="1828" as="geometry" />
        </mxCell>
        <mxCell id="gpSYbSqz9sT6_d6u6PUT-8" value="管理端前端" style="rounded=0;whiteSpace=wrap;html=1;fontSize=15;" parent="1" vertex="1">
          <mxGeometry x="351.4563758389262" y="1828" width="126.65388302972195" height="36.45161290322581" as="geometry" />
        </mxCell>
        <mxCell id="gpSYbSqz9sT6_d6u6PUT-14" value="限流策略" style="rounded=0;whiteSpace=wrap;html=1;fontColor=#999999;strokeColor=#B3B3B3;fontSize=15;" parent="1" vertex="1">
          <mxGeometry x="447.54867689357627" y="2006.6129032258063" width="98.79002876318313" height="24.301075268817204" as="geometry" />
        </mxCell>
        <mxCell id="gpSYbSqz9sT6_d6u6PUT-15" value="权限控制" style="rounded=0;whiteSpace=wrap;html=1;fontColor=#999999;strokeColor=#B3B3B3;fontSize=15;" parent="1" vertex="1">
          <mxGeometry x="555.20447746884" y="2006.6129032258063" width="98.79002876318313" height="24.301075268817204" as="geometry" />
        </mxCell>
        <mxCell id="gpSYbSqz9sT6_d6u6PUT-16" value="监控告警" style="rounded=0;whiteSpace=wrap;html=1;fontColor=#999999;strokeColor=#B3B3B3;fontSize=15;" parent="1" vertex="1">
          <mxGeometry x="667.2931639501438" y="2006.6129032258063" width="98.79002876318313" height="24.301075268817204" as="geometry" />
        </mxCell>
        <mxCell id="gpSYbSqz9sT6_d6u6PUT-19" value="FaasSrv" style="text;html=1;strokeColor=none;fillColor=none;align=center;verticalAlign=middle;whiteSpace=wrap;rounded=0;fontSize=15;" parent="1" vertex="1">
          <mxGeometry x="551.5695110258869" y="1964.0860215053763" width="50.66155321188879" height="24.301075268817204" as="geometry" />
        </mxCell>
        <mxCell id="gpSYbSqz9sT6_d6u6PUT-20" value="..." style="rounded=0;whiteSpace=wrap;html=1;fontColor=#999999;strokeColor=#B3B3B3;fontSize=15;" parent="1" vertex="1">
          <mxGeometry x="778.1153116011506" y="2006.6129032258063" width="98.79002876318313" height="24.301075268817204" as="geometry" />
        </mxCell>
        <mxCell id="gpSYbSqz9sT6_d6u6PUT-68" style="edgeStyle=orthogonalEdgeStyle;rounded=0;orthogonalLoop=1;jettySize=auto;html=1;exitX=0;exitY=0.25;exitDx=0;exitDy=0;entryX=0;entryY=0.75;entryDx=0;entryDy=0;strokeWidth=1;fontColor=#000000;fontSize=15;" parent="1" source="gpSYbSqz9sT6_d6u6PUT-38" target="gpSYbSqz9sT6_d6u6PUT-7" edge="1">
          <mxGeometry x="249.5" y="1828" as="geometry" />
        </mxCell>
        <mxCell id="gpSYbSqz9sT6_d6u6PUT-69" value="&lt;font style=&quot;font-size: 12px&quot;&gt;监控看板&lt;/font&gt;" style="edgeLabel;html=1;align=center;verticalAlign=middle;resizable=0;points=[];fontColor=#000000;fontSize=15;" parent="gpSYbSqz9sT6_d6u6PUT-68" vertex="1" connectable="0">
          <mxGeometry x="0.0106" y="-1" relative="1" as="geometry">
            <mxPoint x="-30.400000000000006" y="-12.69" as="offset" />
          </mxGeometry>
        </mxCell>
        <mxCell id="gpSYbSqz9sT6_d6u6PUT-38" value="路由控制" style="rounded=0;whiteSpace=wrap;html=1;fillColor=#d5e8d4;strokeColor=#82b366;fontSize=15;" parent="1" vertex="1">
          <mxGeometry x="339.8928763183126" y="2006.6129032258063" width="88.65771812080537" height="24.301075268817204" as="geometry" />
        </mxCell>
        <mxCell id="gpSYbSqz9sT6_d6u6PUT-55" value="" style="group;fontSize=15;" parent="1" vertex="1" connectable="0">
          <mxGeometry x="440.1140939597316" y="1866.8817204301076" width="407.8255033557047" height="48.60215053763441" as="geometry" />
        </mxCell>
        <mxCell id="IqT8eU0gc5ELSn8c8THs-7" value="Api Gateway" style="rounded=0;whiteSpace=wrap;html=1;fontSize=15;" parent="gpSYbSqz9sT6_d6u6PUT-55" vertex="1">
          <mxGeometry x="149.45158197507192" width="98.24043151680311" height="30.376344086021508" as="geometry" />
        </mxCell>
        <mxCell id="IqT8eU0gc5ELSn8c8THs-8" value="定时任务" style="rounded=0;whiteSpace=wrap;html=1;fontSize=15;" parent="gpSYbSqz9sT6_d6u6PUT-55" vertex="1">
          <mxGeometry x="251.74934331351895" width="98.24043151680311" height="30.376344086021508" as="geometry" />
        </mxCell>
        <mxCell id="IqT8eU0gc5ELSn8c8THs-9" value="消息队列" style="rounded=0;whiteSpace=wrap;html=1;fontSize=15;" parent="gpSYbSqz9sT6_d6u6PUT-55" vertex="1">
          <mxGeometry x="354.90179640616225" width="98.24043151680311" height="30.376344086021508" as="geometry" />
        </mxCell>
        <mxCell id="gpSYbSqz9sT6_d6u6PUT-78" value="&lt;font color=&quot;#b3b3b3&quot; style=&quot;font-size: 15px;&quot;&gt;db&lt;/font&gt;" style="shape=datastore;whiteSpace=wrap;html=1;strokeColor=#B3B3B3;fontColor=#4D9900;align=center;fontSize=15;" parent="gpSYbSqz9sT6_d6u6PUT-55" vertex="1">
          <mxGeometry x="67.12655800575264" y="12.150537634408602" width="37.99616490891659" height="36.45161290322581" as="geometry" />
        </mxCell>
        <mxCell id="gpSYbSqz9sT6_d6u6PUT-74" value="dataProxy" style="rounded=0;whiteSpace=wrap;html=1;fillColor=#dae8fc;strokeColor=#6c8ebf;fontSize=15;" parent="1" vertex="1">
          <mxGeometry x="729.006031136424" y="2109.8924731182797" width="113.75342236309662" height="29.161290322580648" as="geometry" />
        </mxCell>
        <mxCell id="gpSYbSqz9sT6_d6u6PUT-75" value="调度层" style="text;html=1;strokeColor=none;fillColor=none;align=center;verticalAlign=middle;whiteSpace=wrap;rounded=0;fontSize=15;" parent="1" vertex="1">
          <mxGeometry x="255.8326941514861" y="1990.8172043010752" width="50.66155321188879" height="24.301075268817204" as="geometry" />
        </mxCell>
        <mxCell id="gpSYbSqz9sT6_d6u6PUT-79" style="edgeStyle=orthogonalEdgeStyle;rounded=0;orthogonalLoop=1;jettySize=auto;html=1;exitX=1;exitY=0.5;exitDx=0;exitDy=0;entryX=0;entryY=0.5;entryDx=0;entryDy=0;strokeWidth=1;fontColor=#4D9900;dashed=1;dashPattern=1 1;strokeColor=#B3B3B3;fontSize=15;" parent="1" source="gpSYbSqz9sT6_d6u6PUT-7" target="gpSYbSqz9sT6_d6u6PUT-78" edge="1">
          <mxGeometry x="249.5" y="1828" as="geometry" />
        </mxCell>
        <mxCell id="gpSYbSqz9sT6_d6u6PUT-46" style="edgeStyle=orthogonalEdgeStyle;rounded=0;orthogonalLoop=1;jettySize=auto;html=1;exitX=0;exitY=0.5;exitDx=0;exitDy=0;fontColor=#999999;fillColor=#d5e8d4;strokeColor=#82b366;strokeWidth=2;entryX=0;entryY=0.75;entryDx=0;entryDy=0;fontSize=15;" parent="1" source="IqT8eU0gc5ELSn8c8THs-2" target="gpSYbSqz9sT6_d6u6PUT-38" edge="1">
          <mxGeometry x="249.5" y="1828" as="geometry" />
        </mxCell>
        <mxCell id="5PFWlFZqcd6oAMGtFJjq-1" value="&lt;span style=&quot;color: rgb(77 , 153 , 0)&quot;&gt;&lt;font style=&quot;font-size: 12px&quot;&gt;pod 资源信息心跳上报&lt;/font&gt;&lt;/span&gt;" style="edgeLabel;html=1;align=center;verticalAlign=middle;resizable=0;points=[];fontSize=15;" vertex="1" connectable="0" parent="gpSYbSqz9sT6_d6u6PUT-46">
          <mxGeometry x="-0.3224" y="1" relative="1" as="geometry">
            <mxPoint as="offset" />
          </mxGeometry>
        </mxCell>
        <mxCell id="5PFWlFZqcd6oAMGtFJjq-3" value="&lt;font style=&quot;font-size: 11px&quot;&gt;北极星自定义负载均衡&lt;/font&gt;" style="edgeLabel;html=1;align=center;verticalAlign=middle;resizable=0;points=[];fontColor=#000000;fontSize=15;" vertex="1" connectable="0" parent="1">
          <mxGeometry x="384.9977665160023" y="2049.137470558116" as="geometry" />
        </mxCell>
        <mxCell id="5PFWlFZqcd6oAMGtFJjq-21" value="" style="group;fontSize=15;fillColor=#f5f5f5;strokeColor=#666666;fontColor=#333333;" vertex="1" connectable="0" parent="1">
          <mxGeometry x="360" y="2139" width="50" height="10" as="geometry" />
        </mxCell>
        <mxCell id="5PFWlFZqcd6oAMGtFJjq-12" value="" style="rounded=0;whiteSpace=wrap;html=1;fontSize=15;fillColor=#f5f5f5;strokeColor=#666666;fontColor=#333333;" vertex="1" parent="5PFWlFZqcd6oAMGtFJjq-21">
          <mxGeometry width="5.555555555555555" height="10" as="geometry" />
        </mxCell>
        <mxCell id="5PFWlFZqcd6oAMGtFJjq-13" value="" style="rounded=0;whiteSpace=wrap;html=1;fontSize=15;fillColor=#f5f5f5;strokeColor=#666666;fontColor=#333333;" vertex="1" parent="5PFWlFZqcd6oAMGtFJjq-21">
          <mxGeometry x="5.555555555555555" width="5.555555555555555" height="10" as="geometry" />
        </mxCell>
        <mxCell id="5PFWlFZqcd6oAMGtFJjq-14" value="" style="rounded=0;whiteSpace=wrap;html=1;fontSize=15;fillColor=#f5f5f5;strokeColor=#666666;fontColor=#333333;" vertex="1" parent="5PFWlFZqcd6oAMGtFJjq-21">
          <mxGeometry x="11.11111111111111" width="5.555555555555555" height="10" as="geometry" />
        </mxCell>
        <mxCell id="5PFWlFZqcd6oAMGtFJjq-15" value="" style="rounded=0;whiteSpace=wrap;html=1;fontSize=15;fillColor=#f5f5f5;strokeColor=#666666;fontColor=#333333;" vertex="1" parent="5PFWlFZqcd6oAMGtFJjq-21">
          <mxGeometry x="16.666666666666668" width="5.555555555555555" height="10" as="geometry" />
        </mxCell>
        <mxCell id="5PFWlFZqcd6oAMGtFJjq-16" value="" style="rounded=0;whiteSpace=wrap;html=1;fontSize=15;fillColor=#f5f5f5;strokeColor=#666666;fontColor=#333333;" vertex="1" parent="5PFWlFZqcd6oAMGtFJjq-21">
          <mxGeometry x="22.22222222222222" width="5.555555555555555" height="10" as="geometry" />
        </mxCell>
        <mxCell id="5PFWlFZqcd6oAMGtFJjq-17" value="" style="rounded=0;whiteSpace=wrap;html=1;fontSize=15;fillColor=#f5f5f5;strokeColor=#666666;fontColor=#333333;" vertex="1" parent="5PFWlFZqcd6oAMGtFJjq-21">
          <mxGeometry x="27.77777777777778" width="5.555555555555555" height="10" as="geometry" />
        </mxCell>
        <mxCell id="5PFWlFZqcd6oAMGtFJjq-18" value="" style="rounded=0;whiteSpace=wrap;html=1;fontSize=15;fillColor=#f5f5f5;strokeColor=#666666;fontColor=#333333;" vertex="1" parent="5PFWlFZqcd6oAMGtFJjq-21">
          <mxGeometry x="33.333333333333336" width="5.555555555555555" height="10" as="geometry" />
        </mxCell>
        <mxCell id="5PFWlFZqcd6oAMGtFJjq-19" value="" style="rounded=0;whiteSpace=wrap;html=1;fontSize=15;fillColor=#f5f5f5;strokeColor=#666666;fontColor=#333333;" vertex="1" parent="5PFWlFZqcd6oAMGtFJjq-21">
          <mxGeometry x="38.88888888888889" width="5.555555555555555" height="10" as="geometry" />
        </mxCell>
        <mxCell id="5PFWlFZqcd6oAMGtFJjq-20" value="" style="rounded=0;whiteSpace=wrap;html=1;fontSize=15;fillColor=#f5f5f5;strokeColor=#666666;fontColor=#333333;" vertex="1" parent="5PFWlFZqcd6oAMGtFJjq-21">
          <mxGeometry x="44.44444444444444" width="5.555555555555555" height="10" as="geometry" />
        </mxCell>
        <mxCell id="5PFWlFZqcd6oAMGtFJjq-43" value="LRU" style="text;html=1;strokeColor=none;fillColor=none;align=center;verticalAlign=middle;whiteSpace=wrap;rounded=0;fontSize=12;fontColor=#B3B3B3;" vertex="1" parent="1">
          <mxGeometry x="326.13" y="2134.19" width="40" height="20" as="geometry" />
        </mxCell>
      </root>
    </mxGraphModel>
  </diagram>
</mxfile>
